{"title":"PATHFINDER.DEWSTRR","uid":4790272,"size":1156134738,"categoryP":"video","categoryS":"movies","magnet":"?xt=urn:btih:e415a2a821bc93a74786e7f074ddce2ba0a2336c&amp;dn=PATHFINDER.DEWSTRR&amp;tr=udp%3A%2F%2Ftracker.openbittorrent.com%3A80&amp;tr=udp%3A%2F%2Fopen.demonii.com%3A1337&amp;tr=udp%3A%2F%2Ftracker.coppersurfer.tk%3A6969&amp;tr=udp%3A%2F%2Fexodus.desync.com%3A6969","seeders":0,"leechers":0,"uploader":"dewstrr505","files":14,"time":1237691175,"description":"PATHFINDER DVDRIP  \n\nAction | Adventure | Drama | History | Thriller | War\n\nVikings visiting America before Columbus did? there are rumors of that being true. This is a movie about a young viking boy who survived a ship crash that landed on shores of America. He is found and adopted by a Indian woman and her husband who raises him as one of their own, he grows up and becomes one of them even though the other Indian warriors don't accept him, but a young Indian woman falls in love with him and when the vikings attack again all in his village are killed, he sets off on a quest alone to repel them and make them never want to come back again.\n &lt;a href=&quot;\nhttp://www.imdb.com/title/tt0446013/&quot; rel=&quot;nofollow&quot; target=&quot;_NEW&quot;&gt;\nhttp://www.imdb.com/title/tt0446013/&lt;/a&gt;\n\nVideo\nFormat :     MPEG-4 Visual\nFormat settings, BVOP :     Yes\nFormat settings, QPel :     No\nFormat settings, GMC :     No warppoints\nFormat settings, Matrix :     Default\nCodec ID :     DX50\nCodec ID/Hint :     DivX 5\nDuration :     1h 47mn\nBit rate :     1 300 Kbps\nWidth :     720 pixels\nHeight :     304 pixels\nDisplay aspect ratio :     2.35\nFrame rate :     23.976 fps\nResolution :     24 bits\nColorimetry :     4:2:0\nScan type :     Progressive\nBits/(Pixel*Frame) :     0.248\nStream size :     997 MiB (90%)\nTitle :     Video\nWriting library :     DivX 6.8.2 (UTC 2008-05-17)\n\nAudio\nFormat :     MPEG Audio\nFormat version :     Version 1\nFormat profile :     Layer 3\nCodec ID :     55\nCodec ID/Hint :     MP3\nDuration :     1h 47mn\nBit rate mode :     Constant\nBit rate :     128 Kbps\nChannel(s) :     2 channels\nSampling rate :     48.0 KHz\nResolution :     16 bits\nStream size :     98.1 MiB (9%)\nAlignment :     Split accross interleaves\nInterleave, duration :     42 ms (1.00 video frame)\nInterleave, preload duration :     500 ms\nTitle :     Audio\nWriting library :     LAME3.92\n\nGeneral\nComplete name : PATHFINDERP F 1.sfv\nFile size :     1.27 KiB\n\nGeneral\nComplete name :\nFile size :     47.0 Bytes\n[IMG]http://i203.photobucket.com/albums/aa38/476352oop/MOVIES/PF1.jpg[/IMG]\n[IMG]http://i203.photobucket.com/albums/aa38/476352oop/MOVIES/PF2.jpg[/IMG]]\n[IMG]http://i203.photobucket.com/albums/aa38/476352oop/MOVIES/PF3.jpg[/IMG]\n[IMG]http://i203.photobucket.com/albums/aa38/476352oop/MOVIES/PF4.jpg[/IMG]\n[IMG]http://i203.photobucket.com/albums/aa38/476352oop/MOVIES/PF5.jpg[/IMG]\n[IMG]http://i203.photobucket.com/albums/aa38/476352oop/MOVIES/PF6.jpg[/IMG]\n[IMG]http://i203.photobucket.com/albums/aa38/476352oop/MOVIES/PF7.jpg[/IMG]\n[IMG]http://i203.photobucket.com/albums/aa38/476352oop/MOVIES/PF8.jpg[/IMG]\n[IMG]http://i203.photobucket.com/albums/aa38/476352oop/MOVIES/PF9.jpg[/IMG]\n[IMG]http://i203.photobucket.com/albums/aa38/476352oop/MOVIES/PF10.jpg[/IMG]\nburned with windows [with a couple of other movies on a disk] and played on my philips divx ultra certified dvd player\nbe sure to set your dvd player on the correct aspect ratio\n\n","torrent":{"xt":"urn:btih:e415a2a821bc93a74786e7f074ddce2ba0a2336c","amp;dn":"PATHFINDER.DEWSTRR","amp;tr":["udp%3A%2F%2Ftracker.openbittorrent.com%3A80","udp%3A%2F%2Fopen.demonii.com%3A1337","udp%3A%2F%2Ftracker.coppersurfer.tk%3A6969","udp%3A%2F%2Fexodus.desync.com%3A6969"],"infoHash":"e415a2a821bc93a74786e7f074ddce2ba0a2336c","infoHashBuffer":{"type":"Buffer","data":[228,21,162,168,33,188,147,167,71,134,231,240,116,221,206,43,160,162,51,108]},"announce":[],"urlList":[]}}